<svg width="165" height="118" viewBox="0 0 165 118" fill="none" xmlns="http://www.w3.org/2000/svg">
<path d="M81.3195 117.888L43.7045 117.98H43.0462C42.8999 117.852 42.461 117.962 42.0221 117.962L15.1412 117.907C7.80841 117.907 0.640163 111.818 0.567017 104.302L0.201296 57.8379L0.000145649 12.2698C-0.036427 5.17487 6.82095 0.0182858 13.404 0H35.2013L79.5457 0.384001C87.0797 0.457144 93.2422 7.18631 93.3519 14.464L93.8639 44.1053L94.7233 103.095C94.8331 110.099 89.2009 117.852 81.3012 117.87L81.3195 117.888ZM80.6428 22.0161C80.6428 14.7749 74.773 8.92346 67.5499 8.92346C60.3268 8.92346 54.4568 14.7932 54.4568 22.0161C54.4568 29.239 60.3268 35.1087 67.5499 35.1087C74.773 35.1087 80.6428 29.239 80.6428 22.0161ZM62.832 80.8414C62.832 67.1637 51.7505 56.0642 38.054 56.0642C24.3575 56.0642 13.276 67.1637 13.276 80.8414C13.276 94.5192 24.3575 105.619 38.054 105.619C51.7505 105.619 62.832 94.5192 62.832 80.8414Z" fill="black"/>
<path d="M129.887 81.1888L130.162 99.6574L100.684 99.4929L100.392 92.3248L124.731 92.4528L123.743 33.7921C125.554 33.4263 127.144 33.4812 129.046 33.7372L129.321 44.5624L149.765 44.6721L150.514 81.2802L129.887 81.2071V81.1888Z" fill="black"/>
<path d="M105.04 20.8797L99.1709 20.9729L100.214 86.6471L106.083 86.5539L105.04 20.8797Z" fill="black"/>
<path d="M117.009 24.1556L111.158 24.2537L112.207 86.8371L118.058 86.7391L117.009 24.1556Z" fill="black"/>
<path d="M67.5319 29.294C71.5514 29.294 74.8098 26.0356 74.8098 22.0163C74.8098 17.9969 71.5514 14.7385 67.5319 14.7385C63.5124 14.7385 60.2539 17.9969 60.2539 22.0163C60.2539 26.0356 63.5124 29.294 67.5319 29.294Z" fill="black"/>
</svg>
