<svg width="254" height="111" viewBox="0 0 254 111" fill="none" xmlns="http://www.w3.org/2000/svg">
<g clip-path="url(#clip0_7_2674)">
<path d="M93.0257 5.35172C84.8645 3.94641 80.179 3.5999 72.3827 0L71.941 2.96462L65.1816 1.1358C65.1432 5.46722 68.8302 7.5078 72.6131 8.79761C66.4298 27.5479 55.9642 40.8117 41.2549 18.9813C38.2976 14.3803 34.3994 14.9579 33.3241 12.1665C30.7125 5.67898 21.0919 0.115505 14.2365 0.808533C-4.9664 5.96774 2.46511 11.8777 -5.46567 18.346C-13.7805 21.0026 -21.0584 27.5479 -26.0127 36.0182C-26.0127 36.076 -26.0319 36.1337 -26.0703 36.1722C-26.1087 36.23 -26.1471 36.2685 -26.1855 36.307C-26.1855 36.307 -26.1855 36.3262 -26.1855 36.3455C-26.224 36.6727 -26.3584 36.9807 -26.4544 37.308C-26.4928 37.4043 -26.5312 37.5198 -26.5504 37.616C-26.5696 37.9433 -26.5888 38.2513 -26.608 38.5786C-26.6272 38.9636 -26.6272 39.3486 -26.5696 39.7336C-26.512 40.0416 -26.4352 40.3111 -26.4352 40.6191C-26.416 40.5806 -26.3968 40.5421 -26.3776 40.5229C-28.6819 52.6316 -24.0732 65.5297 -34.8652 74.6353L-33.6939 93.5203C-33.9243 102.645 -36.9968 115.004 -23.3819 107.901C-29.8917 101.298 -28.9124 97.4474 -29.9109 89.0541C-31.0631 79.756 -23.2283 73.9037 -19.6182 66.0494C-22.9211 81.9891 -15.72 86.59 -12.3787 101.432C-13.2044 108.17 -5.36966 106.726 -1.08742 105.032C-24.0924 81.8736 -7.61639 71.3434 -2.2972 46.1249C23.3962 64.5671 29.7908 43.6993 27.6784 76.3486C27.8897 86.5323 28.677 98.3522 28.2353 108.651C28.2161 111.501 36.3005 111.866 38.6625 109.229C28.8498 96.6197 35.6668 76.5026 36.1085 61.41C37.3951 73.076 44.0201 93.5203 41.8886 105.013C45.3067 107.131 49.5313 106.938 52.7958 104.378C41.2165 94.3288 46.0748 78.3892 44.769 64.8559C44.2505 55.038 45.0762 57.6176 50.8755 50.9183C62.378 49.7055 68.2349 42.2555 75.4167 34.5359C83.0787 28.2794 83.5011 14.2648 95.3685 14.6883C104.355 14.5151 99.2475 5.12071 93.0257 5.33247V5.35172Z" fill="black"/>
<path d="M220.132 5.35172C211.971 3.94641 207.285 3.5999 199.489 0L199.047 2.96462L192.288 1.1358C192.249 5.46722 195.936 7.5078 199.719 8.79761C193.536 27.5479 183.07 40.8117 168.361 18.9813C165.404 14.3803 161.506 14.9579 160.43 12.1665C157.799 5.65973 148.179 0.115505 141.323 0.789282C122.121 5.94849 129.552 11.8585 121.621 18.3267C113.306 20.9834 106.029 27.5286 101.074 35.999C101.074 36.0567 101.055 36.1145 101.017 36.153C100.978 36.2107 100.94 36.2492 100.901 36.2877C100.901 36.2877 100.901 36.307 100.901 36.3262C100.863 36.6535 100.729 36.9615 100.633 37.2888C100.594 37.385 100.556 37.5005 100.537 37.5968C100.517 37.924 100.498 38.2321 100.479 38.5593C100.46 38.9443 100.46 39.3293 100.517 39.7144C100.575 40.0224 100.652 40.2919 100.652 40.5999C100.671 40.5614 100.69 40.5229 100.709 40.5036C98.405 52.6124 103.014 65.5104 92.2217 74.616L93.393 93.501C93.1626 102.626 90.0902 114.985 103.705 107.881C97.1952 101.278 98.1746 97.4282 97.176 89.0349C96.0238 79.7367 103.859 73.8845 107.469 66.0302C104.166 81.9698 111.367 86.5708 114.708 101.413C113.882 108.151 121.717 106.707 125.999 105.013C102.994 81.8543 119.471 71.3241 124.79 46.1056C150.483 64.5479 156.878 43.68 154.765 76.3293C154.977 86.513 155.764 98.333 155.322 108.632C155.303 111.481 163.387 111.847 165.749 109.21C155.937 96.6004 162.754 76.4833 163.195 61.3907C164.482 73.0567 171.107 93.501 168.975 104.994C172.394 107.111 176.618 106.919 179.883 104.358C168.303 94.3096 173.162 78.3699 171.856 64.8366C171.337 55.0187 172.163 57.5983 177.962 50.8991C189.465 49.6863 195.322 42.2362 202.504 34.5166C210.166 28.2601 210.588 14.2456 222.455 14.6691C231.442 14.4958 226.334 5.10146 220.113 5.31322L220.132 5.35172Z" fill="black"/>
<path d="M347.219 5.35172C339.058 3.94641 334.372 3.5999 326.576 0L326.134 2.96462L319.375 1.1358C319.336 5.46722 323.023 7.5078 326.806 8.79761C320.623 27.5479 310.157 40.8117 295.448 18.9813C292.491 14.3803 288.592 14.9579 287.517 12.1665C284.886 5.65973 275.266 0.115505 268.41 0.789282C249.207 5.94849 256.639 11.8585 248.708 18.3267C240.393 20.9834 233.115 27.5286 228.161 35.999C228.161 36.0567 228.142 36.1145 228.103 36.153C228.065 36.2107 228.027 36.2492 227.988 36.2877C227.988 36.2877 227.988 36.307 227.988 36.3262C227.95 36.6535 227.815 36.9615 227.719 37.2888C227.681 37.385 227.643 37.5005 227.623 37.5968C227.604 37.924 227.585 38.2321 227.566 38.5593C227.547 38.9443 227.547 39.3293 227.604 39.7144C227.662 40.0224 227.739 40.2919 227.739 40.5999C227.758 40.5614 227.777 40.5229 227.796 40.5036C225.492 52.6124 230.101 65.5104 219.309 74.616L220.48 93.501C220.25 102.626 217.177 114.985 230.792 107.881C224.282 101.278 225.261 97.4282 224.263 89.0349C223.111 79.7367 230.946 73.8845 234.556 66.0302C231.253 81.9698 238.454 86.5708 241.795 101.413C240.969 108.151 248.804 106.707 253.086 105.013C230.081 81.8543 246.557 71.3241 251.877 46.1056C277.57 64.5479 283.965 43.68 281.852 76.3293C282.064 86.513 282.851 98.333 282.409 108.632C282.39 111.481 290.474 111.847 292.836 109.21C283.024 96.6004 289.841 76.4833 290.282 61.3907C291.569 73.0567 298.194 93.501 296.062 104.994C299.48 107.111 303.705 106.919 306.97 104.358C295.39 94.3096 300.249 78.3699 298.943 64.8366C298.424 55.0187 299.25 57.5983 305.049 50.8991C316.552 49.6863 322.409 42.2362 329.591 34.5166C337.252 28.2601 337.675 14.2456 349.542 14.6691C358.529 14.4958 353.421 5.10146 347.2 5.31322L347.219 5.35172Z" fill="black"/>
</g>
<defs>
<clipPath id="clip0_7_2674">
<rect width="254" height="111" fill="white"/>
</clipPath>
</defs>
</svg>
