<svg width="226" height="119" viewBox="0 0 226 119" fill="none" xmlns="http://www.w3.org/2000/svg">
<path d="M165.572 48.5171V31.8386L118.455 0.490541L118.38 16.9795L165.61 48.5171H165.572ZM178.043 48.4413L225.198 16.9416L225.084 0.452637L177.891 31.9144L178.081 48.4034L178.043 48.4413ZM165.534 84.1864V67.5078L118.38 36.1598L118.304 52.6488L165.534 84.1864ZM178.043 84.1105L225.198 52.6109L225.122 36.1219L177.891 67.6216L178.043 84.1105ZM165.269 118.643C165.572 111.971 165.572 107.498 165.534 102.229L118.455 70.8435L118.38 87.4083L165.269 118.643ZM178.081 118.756L225.16 87.4083L225.084 70.8056L177.967 102.192L178.043 118.718L178.081 118.756Z" fill="white"/>
<path d="M178.081 118.756L177.967 102.229L225.084 70.8435L225.159 87.4462L178.081 118.756Z" fill="black"/>
<path d="M165.572 48.5171L118.342 16.9795L118.418 0.452637L165.497 31.8386L165.572 48.5171Z" fill="black"/>
<path d="M178.043 48.4413L177.892 31.9523L225.084 0.452637L225.198 16.9795L178.043 48.4413Z" fill="black"/>
<path d="M165.534 84.1864L118.342 52.6489L118.418 36.1599L165.497 67.5079L165.534 84.1864Z" fill="black"/>
<path d="M178.043 84.1106L177.892 67.6216L225.122 36.1599L225.198 52.6489L178.043 84.1106Z" fill="black"/>
<path d="M165.269 118.643L118.38 87.4083L118.456 70.8435L165.535 102.229C165.61 107.498 165.572 111.971 165.269 118.643Z" fill="black"/>
<mask id="mask0_9_2958" style="mask-type:luminance" maskUnits="userSpaceOnUse" x="0" y="0" width="110" height="119">
<path d="M109.093 0H0V119H109.093V0Z" fill="white"/>
</mask>
<g mask="url(#mask0_9_2958)">
<path d="M60.4587 118.756L60.3828 102.229L107.462 70.8435L107.538 87.4462L60.4587 118.756Z" fill="black"/>
<path d="M47.9502 48.5171L0.719727 16.9795L0.795496 0.452637L47.8744 31.8386L47.9502 48.5171Z" fill="black"/>
<path d="M60.4591 48.4413L60.2695 31.9523L107.5 0.452637L107.576 16.9795L60.4591 48.4413Z" fill="black"/>
<path d="M47.9502 84.1864L0.719727 52.6489L0.795496 36.1599L47.9123 67.5079L47.9502 84.1864Z" fill="black"/>
<path d="M60.4591 84.1106L60.2695 67.6216L107.5 36.1599L107.576 52.6489L60.4591 84.1106Z" fill="black"/>
<path d="M47.6472 118.643L0.757812 87.4083L0.833582 70.8435L47.9124 102.229C47.9882 107.498 47.9504 111.971 47.6472 118.643Z" fill="black"/>
</g>
</svg>
