<svg width="220" height="129" viewBox="0 0 220 129" fill="none" xmlns="http://www.w3.org/2000/svg">
<path d="M83.4436 0V11.6265L10.4275 69.778V100.676H0L20.5984 129L40.917 101.427L29.673 101.014L29.4164 76.0326L83.4436 32.7384L82.907 100.676L72.4795 100.788L92.5415 129L113 100.582L102.176 100.788V0H83.4436Z" fill="black"/>
<path d="M198.677 0L177.643 27.5731L189.259 28.0051L189.549 52.9862L133.596 96.2617L134.152 28.3244L144.946 28.2117L124.202 0L103 28.4371L114.229 28.2117V129H133.596V117.373L209.181 59.222V28.3244H220L198.677 0Z" fill="black"/>
</svg>
