<svg width="252" height="130" viewBox="0 0 252 130" fill="none" xmlns="http://www.w3.org/2000/svg">
<rect y="65" width="14" height="65" fill="black"/>
<rect x="14" width="14" height="65" fill="black"/>
<rect x="28" y="65" width="14" height="65" fill="black"/>
<rect x="42" width="14" height="65" fill="black"/>
<rect x="56" y="65" width="14" height="65" fill="black"/>
<rect x="70" width="14" height="65" fill="black"/>
<rect x="84" y="65" width="14" height="65" fill="black"/>
<rect x="98" width="14" height="65" fill="black"/>
<rect x="112" y="65" width="14" height="65" fill="black"/>
<rect x="126" width="14" height="65" fill="black"/>
<rect x="140" y="65" width="14" height="65" fill="black"/>
<rect x="154" width="14" height="65" fill="black"/>
<rect x="168" y="65" width="14" height="65" fill="black"/>
<rect x="182" width="14" height="65" fill="black"/>
<rect x="196" y="65" width="14" height="65" fill="black"/>
<rect x="210" width="14" height="65" fill="black"/>
<rect x="224" y="65" width="14" height="65" fill="black"/>
<rect x="238" width="14" height="65" fill="black"/>
</svg>
