<svg width="164" height="128" viewBox="0 0 164 128" fill="none" xmlns="http://www.w3.org/2000/svg">
<path d="M112.975 127.218L95.1082 127.062C108.034 113.802 86.0317 106.652 95.6023 80.6517C94.8741 80.2877 91.1291 79.7417 90.5049 80.8077L87.4101 86.0857C85.0174 90.1937 72.638 94.5877 63.5875 109.694L80.5182 126.1L0 126.204L25.1489 94.9517C28.972 90.1937 39.6089 93.0017 43.484 96.5377L55.9934 107.9L78.6197 80.5737L85.1215 24.9337L73.0801 16.1717C72.586 8.16367 83.1449 -3.79633 89.7767 1.16967C92.4815 4.34167 94.406 15.9637 98.6972 16.6917L126.187 21.2417L133.339 46.5917C133.729 47.9437 135.497 50.7257 135.939 51.8437C136.486 53.2477 133.599 57.1217 132.194 56.6277L125.667 54.3917C135.367 71.1617 128.007 71.0057 140.413 94.5357C145.9 104.936 149.359 112.944 152.324 125.996H132.272L138.202 116.454L127.721 96.1477C124.366 89.6737 120.959 85.1757 114.744 78.3637L105.433 96.5637L113.001 127.296L112.975 127.218Z" fill="black"/>
</svg>
