<svg width="78" height="120" viewBox="0 0 78 120" fill="none" xmlns="http://www.w3.org/2000/svg">
<path d="M27.5113 119.972L27.8318 107.074L28.2221 76.7616L36.7654 84.5865C42.8419 90.1459 52.0541 90.6046 59.2316 86.9493C66.409 83.294 70.2138 76.1223 70.2556 67.6998L70.4926 15.8443L56.263 0L42.6467 16.2335V55.9416L30.9259 47.7554C24.7797 43.4607 16.1667 44.6699 9.75579 48.7561C4.22286 52.2863 0.292677 58.8047 0.264803 66.1988L0 119.986L13.7836 109.104L27.4974 119.958L27.5113 119.972Z" fill="white"/>
<path d="M27.511 119.972L13.7972 109.117L0.0136719 120L0.278475 66.2126C0.320286 58.8186 4.25047 52.3002 9.76946 48.77C16.1804 44.6838 24.7794 43.4885 30.9395 47.7693L42.6743 55.9555V16.2335L56.2627 0L70.5062 15.8582L70.2693 67.7137C70.2274 76.1362 66.4088 83.3079 59.2452 86.9632C52.0817 90.6185 42.8555 90.1598 36.7791 84.6004L28.2358 76.7755L27.8455 107.088L27.525 119.986L27.511 119.972Z" fill="black"/>
</svg>
