<svg width="992" height="130" viewBox="0 0 992 130" fill="none" xmlns="http://www.w3.org/2000/svg">
<path d="M330.667 0H0V16.4686H330.667V0Z" fill="black"/>
<path d="M330.667 113.531H0V130H330.667V113.531Z" fill="black"/>
<path d="M228.443 113.513L215.945 66.002L204.066 113.513H228.443Z" fill="black"/>
<path d="M661.334 0H330.667V16.4686H661.334V0Z" fill="black"/>
<path d="M426.97 16.4688L439.468 63.9982L451.346 16.4688H426.97Z" fill="black"/>
<path d="M661.334 113.513H330.667V129.982H661.334V113.513Z" fill="black"/>
<path d="M564.576 113.513L552.078 66.002L540.199 113.513H564.576Z" fill="black"/>
<path d="M991.999 0H661.332V16.4686H991.999V0Z" fill="black"/>
<path d="M757.637 16.4688L770.135 63.9982L782.013 16.4688H757.637Z" fill="black"/>
<path d="M991.999 113.513H661.332V129.982H991.999V113.513Z" fill="black"/>
<path d="M889.775 113.513L877.277 65.9839L865.398 113.513H889.775Z" fill="black"/>
</svg>
