<svg width="561" height="129" viewBox="0 0 561 129" fill="none" xmlns="http://www.w3.org/2000/svg">
<mask id="mask0_7_2867" style="mask-type:luminance" maskUnits="userSpaceOnUse" x="0" y="0" width="561" height="129">
<path d="M560.915 0H0V129H560.915V0Z" fill="white"/>
</mask>
<g mask="url(#mask0_7_2867)">
<path d="M112 129H132.919V47.958C132.919 47.958 125.248 -0.796946 76.5353 -0.000103378C76.5353 -0.000103378 23.8398 0.531123 23.0432 52.444L0 48.2236L32.5732 126.609L66.4742 49.2566L44.7587 52.444C44.7587 52.444 44.2276 19.0651 80.7545 19.5963C80.7545 19.5963 108.017 25.1447 112.266 46.63L112 129Z" fill="black"/>
<path d="M162.571 129H141.652V47.958C141.652 47.958 149.324 -0.796946 198.065 -0.000103378C198.065 -0.000103378 250.761 0.531123 251.558 52.444L274.601 48.2236L242.028 126.609L208.127 49.2566L229.842 52.444C229.842 52.444 230.373 19.0651 193.846 19.5963C193.846 19.5963 166.584 25.1447 162.335 46.63L162.601 129H162.571Z" fill="black"/>
<path d="M398.344 129H419.263V47.958C419.263 47.958 411.592 -0.796946 362.85 -0.000103378C362.85 -0.000103378 310.154 0.531123 309.358 52.444L286.314 48.2236L318.888 126.609L352.789 49.2566L331.073 52.444C331.073 52.444 330.542 19.0651 367.069 19.5963C367.069 19.5963 394.331 25.1447 398.58 46.63L398.315 129H398.344Z" fill="black"/>
<path d="M448.915 129H427.996V47.958C427.996 47.958 435.667 -0.796946 484.38 -0.000103378C484.38 -0.000103378 537.075 0.531123 537.872 52.444L560.915 48.2236L528.342 126.609L494.441 49.2566L516.156 52.444C516.156 52.444 516.687 19.0651 480.16 19.5963C480.16 19.5963 452.898 25.1447 448.649 46.63L448.915 129Z" fill="black"/>
</g>
</svg>
